<svg xmlns="http://www.w3.org/2000/svg" xmlns:xlink="http://www.w3.org/1999/xlink" viewBox="0 0 454.56 79.3"><defs><style>.cls-1,.cls-7,.cls-8{fill:none;}.cls-1{clip-rule:evenodd;}.cls-2,.cls-6{fill:#fff;}.cls-3{fill:#e9b62c;}.cls-3,.cls-4,.cls-6{fill-rule:evenodd;}.cls-4{fill:#007b43;}.cls-5{clip-path:url(#clip-path);}.cls-7,.cls-8{stroke:#fff;stroke-miterlimit:2.61;}.cls-7{stroke-width:0.5px;}.cls-8{stroke-width:0.22px;}</style><clipPath id="clip-path"><path class="cls-1" d="M39.15,9.18A30.47,30.47,0,1,1,8.42,39.65,30.6,30.6,0,0,1,39.15,9.18"/></clipPath></defs><g id="Layer_2" data-name="Layer 2"><g id="Layer_1-2" data-name="Layer 1"><path class="cls-2" d="M111.51,29.83c0-.75,0-1.36,0-1.82a2.85,2.85,0,0,0-.26-1.09,1.12,1.12,0,0,0-.68-.53,4.48,4.48,0,0,0-1.31-.15V25.15h5A22.12,22.12,0,0,0,117,25a23.63,23.63,0,0,1,2.63-.16,11,11,0,0,1,4.27.84,11.26,11.26,0,0,1,3.5,2.3,11,11,0,0,1,2.36,12.11,10.2,10.2,0,0,1-2.52,3.53,12,12,0,0,1-3.91,2.34,14.27,14.27,0,0,1-5.05.85c-.48,0-1,0-1.65,0s-1.31,0-2,0h-5.33V45.63h2.29Zm3,15.19a14.3,14.3,0,0,0,1.86.51,8.74,8.74,0,0,0,1.82.2,10.21,10.21,0,0,0,3.78-.68,8,8,0,0,0,2.94-2,9,9,0,0,0,1.91-3.21,12.94,12.94,0,0,0,.68-4.33,8.87,8.87,0,0,0-.71-3.44,10.36,10.36,0,0,0-2-3,9.63,9.63,0,0,0-3-2.15,8.61,8.61,0,0,0-3.72-.81,7.55,7.55,0,0,0-2.1.25,15,15,0,0,0-1.55.5Z"/><path class="cls-2" d="M134.75,36.62a2.8,2.8,0,0,0-.41.76,3.08,3.08,0,0,0-.14,1,8.29,8.29,0,0,0,.58,3.17,7.65,7.65,0,0,0,1.53,2.41,7,7,0,0,0,2.14,1.51,5.61,5.61,0,0,0,2.37.54,6.61,6.61,0,0,0,3.47-1,7.4,7.4,0,0,0,2.64-2.88l.68.32a8.7,8.7,0,0,1-1.34,2,9.21,9.21,0,0,1-1.75,1.5,7.45,7.45,0,0,1-2,1,7.26,7.26,0,0,1-2.16.33,12.24,12.24,0,0,1-2.6-.26,6.34,6.34,0,0,1-2.51-1.29,6.9,6.9,0,0,1-2.08-2.48,7.39,7.39,0,0,1-.63-3.18,8,8,0,0,1,.59-3.08,7.49,7.49,0,0,1,1.7-2.51,7.88,7.88,0,0,1,2.6-1.66,8.86,8.86,0,0,1,3.31-.6,6.83,6.83,0,0,1,6.85,4.43Zm9.66-.75a5.1,5.1,0,0,0-2-1.89,6.39,6.39,0,0,0-2.75-.53,4.9,4.9,0,0,0-4.46,2.42Z"/><path class="cls-2" d="M153.71,22.82l.62.61-.68.65v20a1.85,1.85,0,0,0,.42,1.41,2.54,2.54,0,0,0,1.42.46v.75h-5.62V46h1.32V26.47l-1,1-.61-.58Z"/><path class="cls-2" d="M161.82,22.88l.59.55-.78.75v9.11a8,8,0,0,1,1.15-.74,4.35,4.35,0,0,1,.93-.38,5.26,5.26,0,0,1,.83-.13h.77a3.13,3.13,0,0,1,1.6.42A2.61,2.61,0,0,1,168,33.58a3.46,3.46,0,0,1,.39,1.37c.05.51.07,1,.07,1.6v7.56a4.62,4.62,0,0,0,.09,1,1.08,1.08,0,0,0,.31.55,1,1,0,0,0,.57.21q.35,0,.87,0v.75H164.7V46H166v-9c0-.45,0-.91,0-1.36a4.07,4.07,0,0,0-.23-1.21,2,2,0,0,0-.59-.86,1.85,1.85,0,0,0-1.15-.32A2.32,2.32,0,0,0,161.63,35v8.44a12.1,12.1,0,0,0,.06,1.37,1.56,1.56,0,0,0,.26.74.89.89,0,0,0,.57.31,6.69,6.69,0,0,0,1,.06v.75h-5.63V46h1.26V26.54l-1,.93-.55-.58Z"/><path class="cls-2" d="M176.4,31.58l.55.61-.84.74V44.44a1.65,1.65,0,0,0,.17.84,1.12,1.12,0,0,0,.46.43,1.5,1.5,0,0,0,.59.18L178,46v.75h-5.63V46h1.33V35.19l-1,.91-.55-.58Zm-1.56-5.88a1.4,1.4,0,0,1,.94.38,1.23,1.23,0,0,1,.45,1,1.17,1.17,0,0,1-.45,1.05,1.41,1.41,0,0,1-.74.31,1.46,1.46,0,0,1-1.15-.42,1.43,1.43,0,0,1,0-1.92A1.29,1.29,0,0,1,174.84,25.7Z"/><path class="cls-2" d="M193.26,28.6a6.24,6.24,0,0,0-.08-1.16,1.23,1.23,0,0,0-.31-.69,1.31,1.31,0,0,0-.66-.36,6,6,0,0,0-1.14-.15V25.15h7.33v1.09a2.16,2.16,0,0,1-.69-.11l-.7-.19a1.3,1.3,0,0,0-.53-.05c-.14,0-.21.14-.21.35v17a6.27,6.27,0,0,0,.09,1.21,1.41,1.41,0,0,0,.34.68,1.37,1.37,0,0,0,.68.34,9.62,9.62,0,0,0,1.12.16V46.7h-7.34V45.63a2.41,2.41,0,0,1,.68.11c.24.08.46.15.68.2a1.24,1.24,0,0,0,.53,0c.14,0,.21-.16.21-.37Z"/><path class="cls-2" d="M205,31.58l.52.55-.75.74v.87a8.66,8.66,0,0,1,1.54-1.18,3.56,3.56,0,0,1,1.83-.47,4,4,0,0,1,1.71.36,2.67,2.67,0,0,1,1.16,1,2.91,2.91,0,0,1,.44,1.29,14.87,14.87,0,0,1,.08,1.49v8.3a2.27,2.27,0,0,0,.08.71.76.76,0,0,0,.29.41,1.68,1.68,0,0,0,.58.21l.92.12v.75h-5.68V46h1.35V36.26c0-.3,0-.62,0-.95a2.59,2.59,0,0,0-.21-.91,1.68,1.68,0,0,0-.57-.68,1.81,1.81,0,0,0-1.06-.27,2.16,2.16,0,0,0-1.5.57,3.35,3.35,0,0,0-.93,1.69v8.34a2.83,2.83,0,0,0,.17,1.11,1,1,0,0,0,.43.52,1.55,1.55,0,0,0,.6.18c.22,0,.43,0,.65.09v.75h-5.69V46h1.16V35.32l-1,.84-.48-.58Z"/><path class="cls-2" d="M218.34,25.53v6.95h3v.74h-3V42.5q0,.9.06,1.56a2.74,2.74,0,0,0,.32,1.12,1.65,1.65,0,0,0,.75.68,3.18,3.18,0,0,0,1.32.22,1.92,1.92,0,0,0,1.18-.55,5.77,5.77,0,0,0,1.31-1.74l.71.32a7.4,7.4,0,0,1-.63,1.26,3.58,3.58,0,0,1-.79.92,3.14,3.14,0,0,1-1.07.57,4.81,4.81,0,0,1-1.45.19,4.39,4.39,0,0,1-2-.48,4,4,0,0,1-1.5-1.29,3.67,3.67,0,0,1-.57-1.36,9.52,9.52,0,0,1-.11-1.46V33.22h-1.16l-.16-.74h1.32V27.86Z"/><path class="cls-2" d="M227.93,36.62a2.77,2.77,0,0,0-.4.76,2.81,2.81,0,0,0-.15,1,8.48,8.48,0,0,0,.58,3.17,7.5,7.5,0,0,0,1.54,2.41,6.8,6.8,0,0,0,2.13,1.51A5.68,5.68,0,0,0,234,46a6.63,6.63,0,0,0,3.47-1,7.38,7.38,0,0,0,2.63-2.88l.68.32a8.1,8.1,0,0,1-1.34,2,9.47,9.47,0,0,1-1.74,1.5,7.6,7.6,0,0,1-2,1,7.32,7.32,0,0,1-2.17.33,12.31,12.31,0,0,1-2.6-.26,6.3,6.3,0,0,1-2.5-1.29,6.94,6.94,0,0,1-2.09-2.48A7.39,7.39,0,0,1,225.7,40a7.87,7.87,0,0,1,.6-3.08,7.34,7.34,0,0,1,1.7-2.51,7.88,7.88,0,0,1,2.6-1.66,8.82,8.82,0,0,1,3.31-.6,6.83,6.83,0,0,1,6.85,4.43Zm9.66-.75a5.1,5.1,0,0,0-2-1.89,6.34,6.34,0,0,0-2.74-.53,4.89,4.89,0,0,0-4.46,2.42Z"/><path class="cls-2" d="M246.83,31.61l.49.58-.81.71V34a19.33,19.33,0,0,1,1.54-1.2,3.08,3.08,0,0,1,1.79-.55,3.68,3.68,0,0,1,.73.07,1.67,1.67,0,0,1,.69.29V31.35H252v6.24h-.74c0-.31,0-.63,0-1s0-.68,0-1a2.27,2.27,0,0,0-.6-1.42,1.7,1.7,0,0,0-1.28-.61,3.33,3.33,0,0,0-1.4.27,4.55,4.55,0,0,0-1.41,1.28v8.24a10.86,10.86,0,0,0,.07,1.45,1.38,1.38,0,0,0,.27.76.94.94,0,0,0,.58.31,6.53,6.53,0,0,0,1,.06v.75h-5.79V46h1.43V35.16l-1,.94-.51-.55Z"/><path class="cls-2" d="M258.3,31.58l.52.55-.74.74v.87a8.26,8.26,0,0,1,1.53-1.18,3.56,3.56,0,0,1,1.83-.47,4,4,0,0,1,1.71.36,2.56,2.56,0,0,1,1.16,1,2.79,2.79,0,0,1,.44,1.29,14.87,14.87,0,0,1,.08,1.49v8.3a2.62,2.62,0,0,0,.08.71.81.81,0,0,0,.29.41,1.77,1.77,0,0,0,.58.21l.93.12v.75H261V46h1.36V36.26c0-.3,0-.62,0-.95a2.59,2.59,0,0,0-.21-.91,1.66,1.66,0,0,0-.56-.68,1.86,1.86,0,0,0-1.07-.27A2.16,2.16,0,0,0,259,34a3.27,3.27,0,0,0-.92,1.69v8.34a2.86,2.86,0,0,0,.16,1.11,1,1,0,0,0,.44.52,1.5,1.5,0,0,0,.59.18c.22,0,.43,0,.65.09v.75h-5.69V46h1.17V35.32l-1,.84-.49-.58Z"/><path class="cls-2" d="M276.24,45.73a6.49,6.49,0,0,1-1.46.89,4.73,4.73,0,0,1-1.87.34,5.09,5.09,0,0,1-1.76-.31,4.12,4.12,0,0,1-1.46-.94,4.6,4.6,0,0,1-1-1.58,6.17,6.17,0,0,1-.37-2.25,4,4,0,0,1,.4-1.68,5.08,5.08,0,0,1,1.12-1.5,6.09,6.09,0,0,1,1.63-1.08,4.7,4.7,0,0,1,2-.42,4.4,4.4,0,0,1,2.81.87V36.65a14.84,14.84,0,0,0-.07-1.55,2.11,2.11,0,0,0-.61-1.29,2.42,2.42,0,0,0-1.91-.81,2.88,2.88,0,0,0-2.37,1.21,7.08,7.08,0,0,0-1.21,3.67h-.68V31.19l.74,0v2.48a9.79,9.79,0,0,1,1.81-1.18,5.11,5.11,0,0,1,3.75-.14,4.79,4.79,0,0,1,1.45.81,3.63,3.63,0,0,1,1.23,1.6,6.29,6.29,0,0,1,.32,2.11v7.27a7.39,7.39,0,0,0,.05.91.93.93,0,0,0,.24.55,1.15,1.15,0,0,0,.62.27,7.34,7.34,0,0,0,1.16.11v.75h-4.52Zm0-5.66a5.07,5.07,0,0,0-1.47-1.32,3.64,3.64,0,0,0-1.86-.49,2.32,2.32,0,0,0-1.71.75,2.8,2.8,0,0,0-.78,1.37,8.12,8.12,0,0,0-.13,1.54,3.39,3.39,0,0,0,.24,1.16,5.05,5.05,0,0,0,.7,1.23,4.54,4.54,0,0,0,1.07,1,2.43,2.43,0,0,0,1.38.41,2.62,2.62,0,0,0,1.52-.46,2.8,2.8,0,0,0,1-1.29Z"/><path class="cls-2" d="M286,25.53v6.95h3v.74h-3V42.5q0,.9.06,1.56a2.59,2.59,0,0,0,.33,1.12,1.63,1.63,0,0,0,.74.68,3.18,3.18,0,0,0,1.32.22,1.92,1.92,0,0,0,1.18-.55A5.77,5.77,0,0,0,291,43.79l.71.32a7.4,7.4,0,0,1-.63,1.26,3.4,3.4,0,0,1-.79.92,3.14,3.14,0,0,1-1.07.57,4.81,4.81,0,0,1-1.45.19,4.39,4.39,0,0,1-2-.48,4,4,0,0,1-1.5-1.29,3.67,3.67,0,0,1-.57-1.36,9.52,9.52,0,0,1-.11-1.46V33.22h-1.16l-.16-.74h1.32V27.86Z"/><path class="cls-2" d="M298.11,31.58l.55.61-.84.74V44.44a1.64,1.64,0,0,0,.18.84,1.16,1.16,0,0,0,.45.43,1.5,1.5,0,0,0,.6.18l.61.06v.75H294V46h1.32V35.19l-1,.91-.55-.58Zm-1.55-5.88a1.42,1.42,0,0,1,.94.38,1.23,1.23,0,0,1,.45,1,1.17,1.17,0,0,1-.45,1.05,1.4,1.4,0,0,1-.75.31,1.44,1.44,0,0,1-1.14-.42,1.43,1.43,0,0,1,0-1.92A1.26,1.26,0,0,1,296.56,25.7Z"/><path class="cls-2" d="M308.94,32.25a11.15,11.15,0,0,1,3.39.47A6.73,6.73,0,0,1,315,34.48a6.89,6.89,0,0,1,1.7,2.57,9.57,9.57,0,0,1,.47,3.12,6.48,6.48,0,0,1-.54,2.54A7.35,7.35,0,0,1,315.16,45a7.94,7.94,0,0,1-2.43,1.67,8.53,8.53,0,0,1-6.41,0,7.34,7.34,0,0,1-4-4.06,7.9,7.9,0,0,1-.55-2.92,7.36,7.36,0,0,1,.63-3.07,7.78,7.78,0,0,1,1.64-2.36,7,7,0,0,1,2.27-1.5A6.67,6.67,0,0,1,308.94,32.25Zm0,1.07a6.27,6.27,0,0,0-2.67.5,4.12,4.12,0,0,0-1.76,1.73,8.63,8.63,0,0,0-.55,1.1,3.19,3.19,0,0,0-.19,1.19,8.52,8.52,0,0,0,.63,3.28,9.93,9.93,0,0,0,1.6,2.69,7.62,7.62,0,0,0,2.14,1.79,4.78,4.78,0,0,0,2.28.65,5.26,5.26,0,0,0,2-.36,4.3,4.3,0,0,0,2.49-2.54,5.54,5.54,0,0,0,.34-2,7.68,7.68,0,0,0-.65-3.12A10.41,10.41,0,0,0,313,35.71,8.08,8.08,0,0,0,311,34,4.16,4.16,0,0,0,308.94,33.32Z"/><path class="cls-2" d="M323.48,31.58l.51.55-.74.74v.87a9,9,0,0,1,1.53-1.18,3.56,3.56,0,0,1,1.83-.47,4,4,0,0,1,1.71.36,2.64,2.64,0,0,1,1.17,1,2.9,2.9,0,0,1,.43,1.29A12.4,12.4,0,0,1,330,36.2v8.3a2.62,2.62,0,0,0,.08.71.81.81,0,0,0,.29.41,1.75,1.75,0,0,0,.59.21l.92.12v.75h-5.69V46h1.36V36.26c0-.3,0-.62,0-.95a2.59,2.59,0,0,0-.21-.91,1.58,1.58,0,0,0-.56-.68,1.84,1.84,0,0,0-1.07-.27,2.16,2.16,0,0,0-1.5.57,3.27,3.27,0,0,0-.92,1.69v8.34a2.86,2.86,0,0,0,.16,1.11,1,1,0,0,0,.44.52,1.5,1.5,0,0,0,.6.18c.21,0,.43,0,.64.09v.75H319.4V46h1.17V35.32l-1,.84-.49-.58Z"/><path class="cls-2" d="M341.41,45.73a6.28,6.28,0,0,1-1.46.89,4.73,4.73,0,0,1-1.87.34,5.13,5.13,0,0,1-1.76-.31,4.08,4.08,0,0,1-1.45-.94,4.62,4.62,0,0,1-1-1.58,6.39,6.39,0,0,1-.37-2.25,3.85,3.85,0,0,1,.41-1.68A5,5,0,0,1,335,38.7a6.09,6.09,0,0,1,1.63-1.08,4.7,4.7,0,0,1,2-.42,4.39,4.39,0,0,1,2.81.87V36.65a14.84,14.84,0,0,0-.07-1.55,2.05,2.05,0,0,0-.61-1.29,2.41,2.41,0,0,0-1.91-.81,2.9,2.9,0,0,0-2.37,1.21,7.08,7.08,0,0,0-1.21,3.67h-.68V31.19l.74,0v2.48a9.79,9.79,0,0,1,1.81-1.18,5.11,5.11,0,0,1,3.75-.14,4.79,4.79,0,0,1,1.45.81,3.49,3.49,0,0,1,1.23,1.6,6,6,0,0,1,.32,2.11v7.27a7.39,7.39,0,0,0,.05.91,1,1,0,0,0,.25.55,1.08,1.08,0,0,0,.61.27,7.47,7.47,0,0,0,1.16.11v.75h-4.52Zm0-5.66a5.07,5.07,0,0,0-1.47-1.32,3.64,3.64,0,0,0-1.86-.49,2.32,2.32,0,0,0-1.71.75,2.8,2.8,0,0,0-.78,1.37,9,9,0,0,0-.13,1.54,3.2,3.2,0,0,0,.25,1.16,4.7,4.7,0,0,0,.69,1.23,4.54,4.54,0,0,0,1.07,1,2.47,2.47,0,0,0,1.39.41,2.59,2.59,0,0,0,1.51-.46,2.8,2.8,0,0,0,1-1.29Z"/><path class="cls-2" d="M352.23,22.82l.62.61-.68.65v20a1.85,1.85,0,0,0,.42,1.41A2.54,2.54,0,0,0,354,46v.75h-5.62V46h1.32V26.47l-1,1-.62-.58Z"/><path class="cls-2" d="M379.05,23.76v8.11H378c0-.84,0-1.63,0-2.38a7.35,7.35,0,0,0-.26-1.94,2.66,2.66,0,0,0-.81-1.31,2.54,2.54,0,0,0-1.69-.48,2.77,2.77,0,0,0-2.14.81,2.59,2.59,0,0,0-.74,1.77,2.62,2.62,0,0,0,1.08,2.17,19.11,19.11,0,0,0,3.09,1.84c.77.41,1.52.8,2.24,1.16a10,10,0,0,1,1.93,1.26,6.77,6.77,0,0,1,1.73,2.12A5,5,0,0,1,383,39.1a17.69,17.69,0,0,1-.11,2,5.74,5.74,0,0,1-.86,2.31,7.35,7.35,0,0,1-3.07,2.8,10,10,0,0,1-4.65,1.05,11.23,11.23,0,0,1-3.34-.47,7.42,7.42,0,0,1-2.55-1.32,5.78,5.78,0,0,1-1.62-2.06,6.06,6.06,0,0,1-.57-2.65,5.84,5.84,0,0,1,.44-2.29,5.48,5.48,0,0,1,1.18-1.78,5.56,5.56,0,0,1,1.71-1.16,5.18,5.18,0,0,1,2.07-.42,6.34,6.34,0,0,1,1.78.26,5,5,0,0,1,1.53.74A3.85,3.85,0,0,1,376,37.3a2.81,2.81,0,0,1,.4,1.48q0,2.46-3,2.46a2.26,2.26,0,0,1-.47-.05l-.47-.11v-.72c1.29-.25,1.94-.91,1.94-2a2.22,2.22,0,0,0-.68-1.68,1.94,1.94,0,0,0-1-.55,9.89,9.89,0,0,0-1.13-.06,3.23,3.23,0,0,0-1.41.31,3.59,3.59,0,0,0-1.16.85,4.31,4.31,0,0,0-.81,1.33,4.57,4.57,0,0,0-.31,1.68,5.41,5.41,0,0,0,.55,2.42,6,6,0,0,0,1.47,1.88,7.29,7.29,0,0,0,2.1,1.21,7,7,0,0,0,2.44.43,7.09,7.09,0,0,0,2.52-.43,6.6,6.6,0,0,0,2-1.18,5.57,5.57,0,0,0,1.34-1.7,4.3,4.3,0,0,0,.49-2,9.32,9.32,0,0,0-.07-1.15,2.66,2.66,0,0,0-.55-1.27,6,6,0,0,0-.92-1,6.19,6.19,0,0,0-1.3-.94c-1.36-.75-2.51-1.4-3.46-1.94A13.32,13.32,0,0,1,372.22,33a5.29,5.29,0,0,1-1.31-1.77,5.76,5.76,0,0,1-.42-2.34,3.48,3.48,0,0,1,.31-1.4,4,4,0,0,1,.92-1.34,5.21,5.21,0,0,1,1.47-1,4.58,4.58,0,0,1,2-.41,5.31,5.31,0,0,1,1.6.21,10.72,10.72,0,0,1,1.22.47V23.76Z"/><path class="cls-2" d="M396.79,31.45v8.14h-.74v-5a4.15,4.15,0,0,0-1.55-.95,6.74,6.74,0,0,0-2-.25,6.05,6.05,0,0,0-2.23.41,5.54,5.54,0,0,0-1.81,1.13,5,5,0,0,0-1.21,1.74,5.68,5.68,0,0,0-.44,2.25,7.15,7.15,0,0,0,.5,2.6,7.75,7.75,0,0,0,1.38,2.26,6.71,6.71,0,0,0,2,1.58,5.18,5.18,0,0,0,2.44.6,6.81,6.81,0,0,0,2.45-.42,7.54,7.54,0,0,0,2.14-1.29l.48.58a9.48,9.48,0,0,1-2.73,1.83,7,7,0,0,1-2.83.66l-1.19,0a6.58,6.58,0,0,1-1.17-.17,6.89,6.89,0,0,1-2.1-1,7.69,7.69,0,0,1-1.69-1.58,7,7,0,0,1-1.13-2,6.69,6.69,0,0,1-.41-2.31,7.68,7.68,0,0,1,2.46-5.67,8.58,8.58,0,0,1,2.76-1.71,9.52,9.52,0,0,1,3.51-.63,8.51,8.51,0,0,1,2.39.36v-1.1Z"/><path class="cls-2" d="M404.29,22.88l.58.55-.78.75v9.11a8.6,8.6,0,0,1,1.15-.74,4.41,4.41,0,0,1,.94-.38A5.14,5.14,0,0,1,407,32h.78a3.16,3.16,0,0,1,1.6.42,2.73,2.73,0,0,1,1.08,1.13,3.82,3.82,0,0,1,.39,1.37c0,.51.06,1,.06,1.6v7.56a4,4,0,0,0,.1,1,1,1,0,0,0,.3.55,1,1,0,0,0,.57.21q.36,0,.87,0v.75h-5.59V46h1.3v-9c0-.45,0-.91,0-1.36a4.07,4.07,0,0,0-.22-1.21,2,2,0,0,0-.6-.86,1.83,1.83,0,0,0-1.15-.32A2.33,2.33,0,0,0,404.09,35v8.44a9.84,9.84,0,0,0,.07,1.37,1.46,1.46,0,0,0,.26.74.87.87,0,0,0,.56.31,6.78,6.78,0,0,0,1,.06v.75h-5.62V46h1.26V26.54l-1,.93-.55-.58Z"/><path class="cls-2" d="M421.28,32.25a11.22,11.22,0,0,1,3.4.47,6.8,6.8,0,0,1,2.71,1.76,7,7,0,0,1,1.7,2.57,9.58,9.58,0,0,1,.46,3.12,6.47,6.47,0,0,1-.53,2.54A7.21,7.21,0,0,1,427.5,45a8.23,8.23,0,0,1-8.83,1.7,7.46,7.46,0,0,1-2.43-1.65,7.33,7.33,0,0,1-1.55-2.41,7.7,7.7,0,0,1-.55-2.92,7.36,7.36,0,0,1,.63-3.07,7.75,7.75,0,0,1,1.63-2.36,7.17,7.17,0,0,1,2.28-1.5A6.62,6.62,0,0,1,421.28,32.25Zm0,1.07a6.22,6.22,0,0,0-2.66.5,4.12,4.12,0,0,0-1.76,1.73,8.63,8.63,0,0,0-.55,1.1,3.18,3.18,0,0,0-.2,1.19,8.52,8.52,0,0,0,.63,3.28,10.19,10.19,0,0,0,1.6,2.69,7.66,7.66,0,0,0,2.15,1.79,4.78,4.78,0,0,0,2.28.65,5.3,5.3,0,0,0,2-.36,4.38,4.38,0,0,0,1.51-1,4.3,4.3,0,0,0,1-1.54,5.33,5.33,0,0,0,.34-2,7.68,7.68,0,0,0-.64-3.12,10.14,10.14,0,0,0-1.59-2.57A7.92,7.92,0,0,0,423.3,34,4.1,4.1,0,0,0,421.28,33.32Z"/><path class="cls-2" d="M438.38,32.25a11.15,11.15,0,0,1,3.39.47,6.73,6.73,0,0,1,2.71,1.76,6.89,6.89,0,0,1,1.7,2.57,9.57,9.57,0,0,1,.47,3.12,6.48,6.48,0,0,1-.54,2.54A7.35,7.35,0,0,1,444.6,45a7.94,7.94,0,0,1-2.43,1.67,8.53,8.53,0,0,1-6.41,0,7.25,7.25,0,0,1-4-4.06,7.9,7.9,0,0,1-.55-2.92,7.36,7.36,0,0,1,.63-3.07,7.61,7.61,0,0,1,1.64-2.36,7,7,0,0,1,2.27-1.5A6.63,6.63,0,0,1,438.38,32.25Zm0,1.07a6.27,6.27,0,0,0-2.67.5A4.12,4.12,0,0,0,434,35.55a8.63,8.63,0,0,0-.55,1.1,3.19,3.19,0,0,0-.19,1.19,8.52,8.52,0,0,0,.63,3.28,10.17,10.17,0,0,0,1.59,2.69,7.8,7.8,0,0,0,2.15,1.79,4.78,4.78,0,0,0,2.28.65,5.26,5.26,0,0,0,2-.36,4.3,4.3,0,0,0,2.49-2.54,5.54,5.54,0,0,0,.34-2,7.68,7.68,0,0,0-.65-3.12,10.41,10.41,0,0,0-1.58-2.57A8,8,0,0,0,440.39,34,4.1,4.1,0,0,0,438.38,33.32Z"/><path class="cls-2" d="M452.72,22.82l.62.61-.68.65v20a1.85,1.85,0,0,0,.42,1.41,2.54,2.54,0,0,0,1.42.46v.75h-5.62V46h1.32V26.47l-1,1-.62-.58Z"/><path class="cls-2" d="M240.06,57.68v.94a.93.93,0,0,1,0,.31.38.38,0,0,1-.12.18.49.49,0,0,1-.22.09l-.3,0-.31,0a.41.41,0,0,1-.2-.09.32.32,0,0,1-.12-.18.91.91,0,0,1-.05-.31,2.54,2.54,0,0,1,0-.41,1.35,1.35,0,0,1,.07-.36,1.4,1.4,0,0,1,.13-.34c.06-.11.12-.23.2-.35l1-1.52a.36.36,0,0,1,.08-.09.24.24,0,0,1,.11-.06l.16-.05h.42l.12,0a.07.07,0,0,1,0,.07.22.22,0,0,1,0,.1Zm2.65,0v.94a.93.93,0,0,1,0,.31.4.4,0,0,1-.13.18.41.41,0,0,1-.21.09l-.31,0-.3,0a.5.5,0,0,1-.21-.09.47.47,0,0,1-.12-.18.93.93,0,0,1,0-.31c0-.15,0-.29,0-.41a3.29,3.29,0,0,1,.07-.36,2,2,0,0,1,.14-.34,2.57,2.57,0,0,1,.2-.35l1-1.52a.36.36,0,0,1,.19-.15l.16-.05h.42a.24.24,0,0,1,.12,0,.07.07,0,0,1,0,.07.22.22,0,0,1,0,.1Z"/><path class="cls-2" d="M251.69,64.43a1.27,1.27,0,0,1,0,.2.78.78,0,0,1,0,.16.61.61,0,0,1,0,.12.77.77,0,0,1-.1.12,2.44,2.44,0,0,1-.31.23,3.61,3.61,0,0,1-.59.29,4.85,4.85,0,0,1-.81.25,5,5,0,0,1-1,.1,4.49,4.49,0,0,1-1.68-.31,3.47,3.47,0,0,1-1.28-.92,4.14,4.14,0,0,1-.81-1.5,6.72,6.72,0,0,1-.29-2.05,6.61,6.61,0,0,1,.31-2.12,4.53,4.53,0,0,1,.86-1.58,3.71,3.71,0,0,1,1.33-1,4.33,4.33,0,0,1,2.51-.26,4.84,4.84,0,0,1,.73.2,3.6,3.6,0,0,1,.59.27,2.44,2.44,0,0,1,.36.26.75.75,0,0,1,.13.15.34.34,0,0,1,0,.12.43.43,0,0,1,0,.17,1.55,1.55,0,0,1,0,.23,1.93,1.93,0,0,1,0,.25.71.71,0,0,1,0,.17.21.21,0,0,1-.08.1.12.12,0,0,1-.1,0,.6.6,0,0,1-.29-.15,4.8,4.8,0,0,0-.47-.31,3.45,3.45,0,0,0-.72-.32,3,3,0,0,0-1-.15,2.64,2.64,0,0,0-1.17.26,2.37,2.37,0,0,0-.89.75,3.68,3.68,0,0,0-.58,1.21,5.77,5.77,0,0,0-.2,1.63,6.08,6.08,0,0,0,.19,1.61,3.23,3.23,0,0,0,.57,1.16,2.23,2.23,0,0,0,.9.71,2.94,2.94,0,0,0,1.21.24,3,3,0,0,0,1-.14,3.9,3.9,0,0,0,.73-.31,4.19,4.19,0,0,0,.49-.32.62.62,0,0,1,.31-.14.16.16,0,0,1,.09,0,.18.18,0,0,1,.06.08s0,.1,0,.17A2.44,2.44,0,0,1,251.69,64.43Z"/><path class="cls-2" d="M257.12,59.38v.27c0,.07,0,.13,0,.17a.29.29,0,0,1-.06.1.12.12,0,0,1-.09,0l-.14,0-.2-.07-.24-.06a1.27,1.27,0,0,0-.28,0,1,1,0,0,0-.37.08,1.22,1.22,0,0,0-.37.24,2.65,2.65,0,0,0-.41.45c-.14.19-.3.42-.47.69v4.37a.15.15,0,0,1,0,.1.2.2,0,0,1-.1.07l-.18,0h-.6a.74.74,0,0,1-.19,0,.2.2,0,0,1-.1-.07.25.25,0,0,1,0-.1V58.94a.16.16,0,0,1,0-.1s0-.05.09-.07a.38.38,0,0,1,.17-.05h.54a.38.38,0,0,1,.17.05.19.19,0,0,1,.08.07.17.17,0,0,1,0,.1v1a4.92,4.92,0,0,1,.51-.65,2.67,2.67,0,0,1,.46-.4,1.6,1.6,0,0,1,.42-.2,2,2,0,0,1,.43,0h.21l.26,0,.24.07a.53.53,0,0,1,.15.07l.06.07a.46.46,0,0,1,0,.09s0,.08,0,.15Z"/><path class="cls-2" d="M264,62a.53.53,0,0,1-.14.41.52.52,0,0,1-.33.12h-4.38a3.88,3.88,0,0,0,.11,1,1.8,1.8,0,0,0,.37.76,1.77,1.77,0,0,0,.67.49,2.79,2.79,0,0,0,1,.17,4.31,4.31,0,0,0,.85-.08,5.27,5.27,0,0,0,.64-.17l.45-.18a.67.67,0,0,1,.26-.07s.07,0,.09,0a.19.19,0,0,1,.07.08,1.06,1.06,0,0,1,0,.14,1.55,1.55,0,0,1,0,.23.91.91,0,0,1,0,.17s0,.08,0,.12a.3.3,0,0,1,0,.1l-.07.09a1.82,1.82,0,0,1-.24.13,3.39,3.39,0,0,1-.52.18c-.21.06-.45.11-.73.16a5.1,5.1,0,0,1-.89.07,4.18,4.18,0,0,1-1.44-.23,2.65,2.65,0,0,1-1-.68,2.89,2.89,0,0,1-.63-1.13,5,5,0,0,1-.22-1.58,5.15,5.15,0,0,1,.22-1.54,3.17,3.17,0,0,1,.64-1.16,2.84,2.84,0,0,1,1-.74,3.34,3.34,0,0,1,1.32-.25,3.17,3.17,0,0,1,1.34.25,2.39,2.39,0,0,1,.9.68,2.77,2.77,0,0,1,.53,1,4.46,4.46,0,0,1,.16,1.23Zm-1.23-.36a2.19,2.19,0,0,0-.42-1.51,1.62,1.62,0,0,0-1.34-.55,1.77,1.77,0,0,0-.79.17,2,2,0,0,0-.58.45,2.08,2.08,0,0,0-.35.66,2.56,2.56,0,0,0-.14.78Z"/><path class="cls-2" d="M270.86,65.6a.15.15,0,0,1-.06.13.34.34,0,0,1-.16.07,2.34,2.34,0,0,1-.61,0,.34.34,0,0,1-.17-.07.17.17,0,0,1-.05-.13v-.66a3.31,3.31,0,0,1-1,.72,2.64,2.64,0,0,1-1.14.26,3.16,3.16,0,0,1-.95-.14,2.08,2.08,0,0,1-.72-.39,1.87,1.87,0,0,1-.47-.64,2.13,2.13,0,0,1-.16-.86,1.88,1.88,0,0,1,.88-1.66,3.34,3.34,0,0,1,1.05-.41,6.63,6.63,0,0,1,1.4-.14h.92v-.51a2.7,2.7,0,0,0-.08-.68,1.26,1.26,0,0,0-.27-.5,1,1,0,0,0-.47-.29,2.09,2.09,0,0,0-.71-.1,2.56,2.56,0,0,0-.81.11,5.44,5.44,0,0,0-.62.23l-.45.24a.77.77,0,0,1-.27.11.2.2,0,0,1-.11,0,.36.36,0,0,1-.08-.09.54.54,0,0,1,0-.15,1.36,1.36,0,0,1,0-.21,1.12,1.12,0,0,1,0-.29.39.39,0,0,1,.12-.2,1.49,1.49,0,0,1,.35-.23,4.9,4.9,0,0,1,1.25-.41,4.5,4.5,0,0,1,2,.09A1.81,1.81,0,0,1,270.72,60a3.88,3.88,0,0,1,.14,1.08Zm-1.21-3h-1a3.75,3.75,0,0,0-.87.09,1.7,1.7,0,0,0-.61.25,1.06,1.06,0,0,0-.36.4,1.27,1.27,0,0,0,.21,1.36,1.33,1.33,0,0,0,.92.31,1.79,1.79,0,0,0,.9-.25,3.73,3.73,0,0,0,.86-.75Z"/><path class="cls-2" d="M278.75,58.75a.38.38,0,0,1,.3.1.48.48,0,0,1,.08.29v6.45a.15.15,0,0,1,0,.1.2.2,0,0,1-.1.07.74.74,0,0,1-.19,0h-.59a.74.74,0,0,1-.19,0,.26.26,0,0,1-.1-.07.15.15,0,0,1,0-.1V59.76h-3.43v3.71a2.06,2.06,0,0,0,.2,1,.77.77,0,0,0,.73.35,1.39,1.39,0,0,0,.3,0l.24-.07.17-.07a.43.43,0,0,1,.14,0l.07,0a.18.18,0,0,1,.05.07s0,.08,0,.14a1.4,1.4,0,0,1,0,.23,1.42,1.42,0,0,1,0,.33.48.48,0,0,1-.09.19.5.5,0,0,1-.18.11,1.71,1.71,0,0,1-.27.09l-.32,0a1.94,1.94,0,0,1-.34,0,2.65,2.65,0,0,1-.89-.13,1.36,1.36,0,0,1-.6-.42,1.65,1.65,0,0,1-.35-.7,4.22,4.22,0,0,1-.1-1V59.76h-.93a.19.19,0,0,1-.18-.12.73.73,0,0,1-.07-.38,1.66,1.66,0,0,1,0-.24.75.75,0,0,1,.05-.16.18.18,0,0,1,.08-.09l.1,0h.93V57.17a.16.16,0,0,1,0-.1.29.29,0,0,1,.1-.08l.19,0,.29,0,.31,0a.69.69,0,0,1,.18,0,.44.44,0,0,1,.1.08.17.17,0,0,1,0,.1v1.58Zm.52-2.06a.82.82,0,0,1-.16.59.9.9,0,0,1-.6.15.87.87,0,0,1-.59-.15,1.1,1.1,0,0,1,0-1.16,1.24,1.24,0,0,1,1.18,0A.76.76,0,0,1,279.27,56.69Z"/><path class="cls-2" d="M287.12,65.59a.15.15,0,0,1,0,.1.22.22,0,0,1-.09.07.74.74,0,0,1-.19,0h-.6a.56.56,0,0,1-.18,0,.2.2,0,0,1-.1-.07.15.15,0,0,1,0-.1V61.7a3.79,3.79,0,0,0-.09-.92,1.82,1.82,0,0,0-.26-.6,1.16,1.16,0,0,0-.44-.38,1.35,1.35,0,0,0-.62-.13,1.56,1.56,0,0,0-.92.32,5.66,5.66,0,0,0-1,.95v4.65a.15.15,0,0,1,0,.1.22.22,0,0,1-.09.07.74.74,0,0,1-.19,0h-.6a.74.74,0,0,1-.19,0,.22.22,0,0,1-.09-.07.15.15,0,0,1,0-.1V58.94a.3.3,0,0,1,0-.1.22.22,0,0,1,.09-.07.42.42,0,0,1,.17-.05h.55a.34.34,0,0,1,.16.05.22.22,0,0,1,.09.07.3.3,0,0,1,0,.1v.88a4.09,4.09,0,0,1,1.12-.92,2.61,2.61,0,0,1,2.25-.07,2,2,0,0,1,.74.61,2.45,2.45,0,0,1,.4.88,5.35,5.35,0,0,1,.12,1.22Z"/><path class="cls-2" d="M294.9,59.24a.73.73,0,0,1-.07.38.2.2,0,0,1-.18.11h-.95a1.52,1.52,0,0,1,.36.59,2.14,2.14,0,0,1,.11.67,2.73,2.73,0,0,1-.19,1,2.09,2.09,0,0,1-.53.75,2.5,2.5,0,0,1-.81.47,3.21,3.21,0,0,1-1.05.16,2.83,2.83,0,0,1-.78-.11,1.54,1.54,0,0,1-.56-.27,1.16,1.16,0,0,0-.22.31.8.8,0,0,0-.09.39.52.52,0,0,0,.24.43,1.21,1.21,0,0,0,.64.18l1.74.08a3.7,3.7,0,0,1,.91.13,2.2,2.2,0,0,1,.72.35,1.64,1.64,0,0,1,.47.55,1.71,1.71,0,0,1,.17.77,2,2,0,0,1-.19.87,2.05,2.05,0,0,1-.59.73,2.88,2.88,0,0,1-1,.49,4.81,4.81,0,0,1-1.45.19,6,6,0,0,1-1.37-.14,3.22,3.22,0,0,1-.93-.37,1.48,1.48,0,0,1-.52-.57,1.57,1.57,0,0,1-.16-.71,1.91,1.91,0,0,1,.06-.48,1.78,1.78,0,0,1,.18-.43,2.2,2.2,0,0,1,.3-.4,4,4,0,0,1,.42-.37,1.32,1.32,0,0,1-.54-.47,1.16,1.16,0,0,1-.17-.6,1.79,1.79,0,0,1,.18-.81,2.92,2.92,0,0,1,.46-.63,2.39,2.39,0,0,1-.36-.62,2.3,2.3,0,0,1-.13-.83,2.54,2.54,0,0,1,.19-1,2.08,2.08,0,0,1,.53-.76,2.31,2.31,0,0,1,.82-.48,3.11,3.11,0,0,1,1-.17,4.8,4.8,0,0,1,1.05.13h2a.2.2,0,0,1,.19.12A.89.89,0,0,1,294.9,59.24Zm-1.29,7a.77.77,0,0,0-.35-.67,1.82,1.82,0,0,0-.95-.24l-1.72-.06a2.8,2.8,0,0,0-.39.35A2,2,0,0,0,290,66a.94.94,0,0,0-.12.3,1.45,1.45,0,0,0,0,.3.8.8,0,0,0,.49.73,3.16,3.16,0,0,0,1.36.24,3.53,3.53,0,0,0,.93-.1,1.68,1.68,0,0,0,.6-.29,1.12,1.12,0,0,0,.33-.4A1.18,1.18,0,0,0,293.61,66.27ZM293,61a1.43,1.43,0,0,0-.38-1.06,1.38,1.38,0,0,0-1.06-.39,1.44,1.44,0,0,0-.61.12,1.22,1.22,0,0,0-.44.33,1.35,1.35,0,0,0-.26.47,1.79,1.79,0,0,0-.08.57,1.3,1.3,0,0,0,1.42,1.41,1.64,1.64,0,0,0,.62-.11,1.22,1.22,0,0,0,.44-.32,1.21,1.21,0,0,0,.26-.47A1.71,1.71,0,0,0,293,61Z"/><path class="cls-2" d="M305.45,59.24a.73.73,0,0,1-.07.38.2.2,0,0,1-.18.11h-.95a1.52,1.52,0,0,1,.36.59,2.13,2.13,0,0,1,.1.67,2.73,2.73,0,0,1-.18,1,2.09,2.09,0,0,1-.53.75,2.45,2.45,0,0,1-.82.47,3.13,3.13,0,0,1-1.05.16,2.81,2.81,0,0,1-.77-.11,1.54,1.54,0,0,1-.56-.27,1,1,0,0,0-.22.31.8.8,0,0,0-.09.39.52.52,0,0,0,.24.43,1.21,1.21,0,0,0,.64.18l1.74.08a3.7,3.7,0,0,1,.91.13,2.41,2.41,0,0,1,.72.35,1.64,1.64,0,0,1,.47.55,1.71,1.71,0,0,1,.17.77,2.13,2.13,0,0,1-.19.87,2.05,2.05,0,0,1-.59.73,3,3,0,0,1-1,.49,4.81,4.81,0,0,1-1.45.19,6,6,0,0,1-1.37-.14,3.11,3.11,0,0,1-.93-.37,1.48,1.48,0,0,1-.52-.57,1.58,1.58,0,0,1-.17-.71,1.91,1.91,0,0,1,.06-.48,1.78,1.78,0,0,1,.18-.43,2.87,2.87,0,0,1,.31-.4,4,4,0,0,1,.42-.37,1.26,1.26,0,0,1-.54-.47,1.07,1.07,0,0,1-.17-.6,1.79,1.79,0,0,1,.18-.81,2.62,2.62,0,0,1,.46-.63,2.39,2.39,0,0,1-.36-.62,2.29,2.29,0,0,1-.14-.83,2.54,2.54,0,0,1,.2-1,2,2,0,0,1,.53-.76,2.26,2.26,0,0,1,.81-.48,3.19,3.19,0,0,1,1-.17,3.4,3.4,0,0,1,.57,0,3.56,3.56,0,0,1,.49.09h2a.21.21,0,0,1,.19.12A.89.89,0,0,1,305.45,59.24Zm-1.29,7a.77.77,0,0,0-.35-.67,1.85,1.85,0,0,0-.95-.24l-1.72-.06a2.8,2.8,0,0,0-.39.35,2,2,0,0,0-.24.32.94.94,0,0,0-.12.3,1,1,0,0,0,0,.3.79.79,0,0,0,.49.73,3.16,3.16,0,0,0,1.36.24,3.53,3.53,0,0,0,.93-.1,1.68,1.68,0,0,0,.6-.29,1.12,1.12,0,0,0,.33-.4A1.18,1.18,0,0,0,304.16,66.27ZM303.55,61a1.43,1.43,0,0,0-.38-1.06,1.4,1.4,0,0,0-1.06-.39,1.49,1.49,0,0,0-.62.12,1.18,1.18,0,0,0-.43.33,1.35,1.35,0,0,0-.26.47,1.79,1.79,0,0,0-.09.57,1.39,1.39,0,0,0,.38,1,1.37,1.37,0,0,0,1,.38,1.73,1.73,0,0,0,.63-.11,1.22,1.22,0,0,0,.44-.32,1.35,1.35,0,0,0,.26-.47A1.71,1.71,0,0,0,303.55,61Z"/><path class="cls-2" d="M308.24,65.59a.15.15,0,0,1,0,.1.2.2,0,0,1-.1.07.56.56,0,0,1-.18,0h-.6a.74.74,0,0,1-.19,0c-.05,0-.08,0-.09-.07a.15.15,0,0,1,0-.1V55.72a.2.2,0,0,1,0-.11s0,0,.09-.07l.19,0,.3,0,.3,0a.6.6,0,0,1,.18,0,.2.2,0,0,1,.1.07.2.2,0,0,1,0,.11Z"/><path class="cls-2" d="M316.68,62.19a5.08,5.08,0,0,1-.21,1.5,3.44,3.44,0,0,1-.64,1.18,2.88,2.88,0,0,1-1.07.77,3.59,3.59,0,0,1-1.48.28,3.69,3.69,0,0,1-1.43-.25,2.55,2.55,0,0,1-1-.7,3,3,0,0,1-.6-1.14,5,5,0,0,1-.2-1.5,5.08,5.08,0,0,1,.21-1.5,3.26,3.26,0,0,1,.63-1.18,2.88,2.88,0,0,1,1.07-.77,3.72,3.72,0,0,1,1.48-.27,3.89,3.89,0,0,1,1.43.24,2.57,2.57,0,0,1,1,.71,3.15,3.15,0,0,1,.61,1.13A5.39,5.39,0,0,1,316.68,62.19Zm-1.26.08a5.51,5.51,0,0,0-.1-1,2.43,2.43,0,0,0-.34-.84,1.62,1.62,0,0,0-.62-.57,2.1,2.1,0,0,0-1-.21,2.06,2.06,0,0,0-.93.19,1.8,1.8,0,0,0-.65.54,2.59,2.59,0,0,0-.38.84,4.3,4.3,0,0,0-.12,1,5.54,5.54,0,0,0,.1,1,2.43,2.43,0,0,0,.34.84,1.58,1.58,0,0,0,.63.57,2.06,2.06,0,0,0,1,.21,2.13,2.13,0,0,0,.94-.19,1.68,1.68,0,0,0,.64-.54,2.35,2.35,0,0,0,.38-.83A4.35,4.35,0,0,0,315.42,62.27Z"/><path class="cls-2" d="M324.6,62.18a6.15,6.15,0,0,1-.19,1.55,3.32,3.32,0,0,1-.56,1.18,2.37,2.37,0,0,1-.89.75,2.84,2.84,0,0,1-1.22.26,2.68,2.68,0,0,1-.59-.06,2.17,2.17,0,0,1-.53-.21,3.65,3.65,0,0,1-.52-.35c-.17-.15-.35-.32-.54-.52v.81a.2.2,0,0,1,0,.11.26.26,0,0,1-.1.07l-.17,0h-.5l-.17,0s-.08,0-.09-.07a.2.2,0,0,1,0-.11V55.72a.36.36,0,0,1,0-.11.2.2,0,0,1,.1-.07l.19,0,.29,0,.31,0a.69.69,0,0,1,.18,0,.2.2,0,0,1,.1.07.2.2,0,0,1,0,.11v4a4.36,4.36,0,0,1,.57-.51,2.91,2.91,0,0,1,.54-.33,2.42,2.42,0,0,1,.53-.19,2.62,2.62,0,0,1,.57-.06,2.38,2.38,0,0,1,1.23.29,2.31,2.31,0,0,1,.84.77,3.49,3.49,0,0,1,.47,1.13A6.21,6.21,0,0,1,324.6,62.18Zm-1.27.14a6.41,6.41,0,0,0-.07-1,2.93,2.93,0,0,0-.28-.85,1.67,1.67,0,0,0-.51-.6,1.35,1.35,0,0,0-.8-.22,1.82,1.82,0,0,0-.46.06,1.7,1.7,0,0,0-.47.23,2.82,2.82,0,0,0-.5.4,4.93,4.93,0,0,0-.54.61v2.65a5.23,5.23,0,0,0,1,.94,1.7,1.7,0,0,0,1,.32,1.36,1.36,0,0,0,.79-.22,1.67,1.67,0,0,0,.53-.59,2.67,2.67,0,0,0,.3-.82A4.7,4.7,0,0,0,323.33,62.32Z"/><path class="cls-2" d="M331.44,65.6a.15.15,0,0,1-.06.13.34.34,0,0,1-.16.07,1.24,1.24,0,0,1-.3,0,1.37,1.37,0,0,1-.31,0,.34.34,0,0,1-.17-.07.17.17,0,0,1-.05-.13v-.66a3.18,3.18,0,0,1-1,.72,2.63,2.63,0,0,1-1.13.26,3.11,3.11,0,0,1-1-.14,2,2,0,0,1-.73-.39,1.84,1.84,0,0,1-.46-.64,2.21,2.21,0,0,1,.06-1.83,1.82,1.82,0,0,1,.66-.69,3.16,3.16,0,0,1,1.05-.41,6.54,6.54,0,0,1,1.39-.14h.92v-.51a2.7,2.7,0,0,0-.08-.68,1.25,1.25,0,0,0-.26-.5,1.07,1.07,0,0,0-.47-.29,2.13,2.13,0,0,0-.71-.1,2.56,2.56,0,0,0-.81.11,5,5,0,0,0-.63.23l-.45.24a.65.65,0,0,1-.27.11.15.15,0,0,1-.1,0,.24.24,0,0,1-.08-.09.53.53,0,0,1-.05-.15,1.36,1.36,0,0,1,0-.21,1.12,1.12,0,0,1,0-.29.41.41,0,0,1,.13-.2,1.39,1.39,0,0,1,.34-.23,4.32,4.32,0,0,1,.56-.23,4.47,4.47,0,0,1,.7-.18,3.84,3.84,0,0,1,.76-.07,4,4,0,0,1,1.22.16,2,2,0,0,1,.81.48,1.78,1.78,0,0,1,.45.78,3.54,3.54,0,0,1,.14,1.08Zm-1.21-3h-1a3.63,3.63,0,0,0-.87.09,1.68,1.68,0,0,0-.62.25,1.06,1.06,0,0,0-.36.4,1.25,1.25,0,0,0-.11.53,1.08,1.08,0,0,0,.33.83,1.31,1.31,0,0,0,.92.31,1.73,1.73,0,0,0,.89-.25,3.73,3.73,0,0,0,.86-.75Z"/><path class="cls-2" d="M334.9,65.59a.15.15,0,0,1,0,.1.22.22,0,0,1-.09.07.74.74,0,0,1-.19,0H334a.74.74,0,0,1-.19,0s-.08,0-.09-.07a.15.15,0,0,1,0-.1V55.72a.2.2,0,0,1,0-.11s.05,0,.09-.07l.19,0,.3,0,.3,0,.19,0a.22.22,0,0,1,.09.07.2.2,0,0,1,0,.11Z"/><path class="cls-2" d="M346.31,65.59a.15.15,0,0,1,0,.1.2.2,0,0,1-.1.07.56.56,0,0,1-.18,0h-.6a.74.74,0,0,1-.19,0,.22.22,0,0,1-.09-.07.15.15,0,0,1,0-.1V61.7a3.79,3.79,0,0,0-.09-.92,2.05,2.05,0,0,0-.26-.6,1.16,1.16,0,0,0-.44-.38,1.38,1.38,0,0,0-.62-.13,1.53,1.53,0,0,0-.92.32,5,5,0,0,0-1,.95v4.65a.15.15,0,0,1,0,.1.2.2,0,0,1-.1.07.56.56,0,0,1-.18,0h-.6a.74.74,0,0,1-.19,0,.2.2,0,0,1-.1-.07.25.25,0,0,1,0-.1V55.72a.36.36,0,0,1,0-.11.2.2,0,0,1,.1-.07l.19,0,.29,0,.31,0a.6.6,0,0,1,.18,0,.2.2,0,0,1,.1.07.2.2,0,0,1,0,.11v4a4,4,0,0,1,1.05-.82,2.4,2.4,0,0,1,1.08-.27,2.54,2.54,0,0,1,1.12.22,2,2,0,0,1,.73.61,2.29,2.29,0,0,1,.4.88,4.8,4.8,0,0,1,.13,1.22Z"/><path class="cls-2" d="M354.21,62a.5.5,0,0,1-.15.41.48.48,0,0,1-.33.12h-4.38a4.37,4.37,0,0,0,.11,1,1.94,1.94,0,0,0,.38.76,1.69,1.69,0,0,0,.67.49,2.79,2.79,0,0,0,1,.17,4.31,4.31,0,0,0,.85-.08,5.81,5.81,0,0,0,.64-.17l.44-.18a.76.76,0,0,1,.27-.07.15.15,0,0,1,.09,0,.12.12,0,0,1,.06.08.39.39,0,0,1,0,.14c0,.06,0,.14,0,.23a.91.91,0,0,1,0,.17.5.5,0,0,1,0,.12.3.3,0,0,1,0,.1.24.24,0,0,1-.06.09,1.82,1.82,0,0,1-.24.13,3.82,3.82,0,0,1-.52.18c-.21.06-.46.11-.73.16a5.14,5.14,0,0,1-.9.07,4.16,4.16,0,0,1-1.43-.23,2.65,2.65,0,0,1-1-.68,3,3,0,0,1-.64-1.13,5.35,5.35,0,0,1-.21-1.58,4.85,4.85,0,0,1,.22-1.54A3.17,3.17,0,0,1,349,59.6a2.76,2.76,0,0,1,1-.74,3.27,3.27,0,0,1,1.32-.25,3.21,3.21,0,0,1,1.34.25,2.55,2.55,0,0,1,.9.68,2.61,2.61,0,0,1,.52,1,4.46,4.46,0,0,1,.17,1.23ZM353,61.62a2.19,2.19,0,0,0-.43-1.51,1.6,1.6,0,0,0-1.33-.55,1.85,1.85,0,0,0-.8.17,2,2,0,0,0-.57.45,2.33,2.33,0,0,0-.36.66,2.9,2.9,0,0,0-.14.78Z"/><path class="cls-2" d="M361.08,65.6a.15.15,0,0,1-.06.13.38.38,0,0,1-.17.07,1.24,1.24,0,0,1-.3,0,1.37,1.37,0,0,1-.31,0,.3.3,0,0,1-.16-.07.14.14,0,0,1-.05-.13v-.66a3.22,3.22,0,0,1-1,.72,2.57,2.57,0,0,1-1.13.26,3.11,3.11,0,0,1-.95-.14,2,2,0,0,1-.72-.39,1.87,1.87,0,0,1-.47-.64,2.13,2.13,0,0,1-.17-.86,2,2,0,0,1,.23-1,1.82,1.82,0,0,1,.66-.69,3.34,3.34,0,0,1,1.05-.41,6.57,6.57,0,0,1,1.4-.14h.91v-.51a2.31,2.31,0,0,0-.08-.68,1.14,1.14,0,0,0-.26-.5,1.07,1.07,0,0,0-.47-.29,2.09,2.09,0,0,0-.71-.1,2.56,2.56,0,0,0-.81.11,5,5,0,0,0-.63.23l-.45.24a.65.65,0,0,1-.27.11.17.17,0,0,1-.1,0,.24.24,0,0,1-.08-.09A.53.53,0,0,1,356,60a1.41,1.41,0,0,1,0-.21,2.07,2.07,0,0,1,0-.29.41.41,0,0,1,.13-.2,1.62,1.62,0,0,1,.34-.23,4.49,4.49,0,0,1,.57-.23,4.33,4.33,0,0,1,.69-.18,4.5,4.5,0,0,1,2,.09A1.86,1.86,0,0,1,360.94,60a3.88,3.88,0,0,1,.14,1.08Zm-1.22-3h-1a3.75,3.75,0,0,0-.87.09,1.63,1.63,0,0,0-.61.25.91.91,0,0,0-.36.4,1.12,1.12,0,0,0-.12.53,1.08,1.08,0,0,0,.33.83,1.33,1.33,0,0,0,.92.31,1.73,1.73,0,0,0,.89-.25,3.54,3.54,0,0,0,.86-.75Z"/><path class="cls-2" d="M369,65.59a.2.2,0,0,1,0,.11.22.22,0,0,1-.09.07l-.17,0h-.51l-.17,0a.22.22,0,0,1-.09-.07.2.2,0,0,1,0-.11v-.88a4.59,4.59,0,0,1-1.09.89,2.52,2.52,0,0,1-1.24.32,2.57,2.57,0,0,1-1.25-.29,2.45,2.45,0,0,1-.84-.76,3.65,3.65,0,0,1-.47-1.14,6.21,6.21,0,0,1-.15-1.38,6.15,6.15,0,0,1,.19-1.55,3.3,3.3,0,0,1,.55-1.18,2.57,2.57,0,0,1,.89-.75,2.86,2.86,0,0,1,1.24-.26,2.25,2.25,0,0,1,1.07.25,3.93,3.93,0,0,1,1,.75V55.75a.3.3,0,0,1,0-.1.21.21,0,0,1,.1-.08l.19,0,.29,0,.31,0,.18,0a.21.21,0,0,1,.1.08.17.17,0,0,1,0,.1Zm-1.22-4.68a4.85,4.85,0,0,0-1-.93,1.63,1.63,0,0,0-1-.32,1.39,1.39,0,0,0-.8.22,1.71,1.71,0,0,0-.52.58,2.67,2.67,0,0,0-.3.82,4.91,4.91,0,0,0-.09.94,5.33,5.33,0,0,0,.08,1,2.74,2.74,0,0,0,.27.85,1.49,1.49,0,0,0,.51.6,1.32,1.32,0,0,0,.79.23,1.78,1.78,0,0,0,.47-.07,1.8,1.8,0,0,0,.47-.22,5.1,5.1,0,0,0,.49-.4,7,7,0,0,0,.55-.61Z"/><path class="cls-2" d="M375.45,63.78a2.17,2.17,0,0,1-.19.91,1.86,1.86,0,0,1-.54.67,2.41,2.41,0,0,1-.83.42,3.86,3.86,0,0,1-1.05.14,3.66,3.66,0,0,1-.68-.06,3.08,3.08,0,0,1-.58-.14,2.57,2.57,0,0,1-.43-.17,2,2,0,0,1-.26-.17.53.53,0,0,1-.12-.21,1.73,1.73,0,0,1,0-.36,1.77,1.77,0,0,1,0-.24.54.54,0,0,1,0-.15.15.15,0,0,1,.06-.09l.09,0a.45.45,0,0,1,.24.1l.4.22a3.35,3.35,0,0,0,.55.21,2.3,2.3,0,0,0,.73.1,2.4,2.4,0,0,0,.56-.06,1.48,1.48,0,0,0,.44-.2.93.93,0,0,0,.38-.8.77.77,0,0,0-.14-.47,1.38,1.38,0,0,0-.38-.34,3.4,3.4,0,0,0-.54-.27l-.61-.24c-.21-.08-.41-.18-.61-.28a2.66,2.66,0,0,1-.54-.39,2,2,0,0,1-.38-.55,1.91,1.91,0,0,1-.14-.76,1.93,1.93,0,0,1,.15-.75,1.66,1.66,0,0,1,.46-.63,2.27,2.27,0,0,1,.75-.43,3.15,3.15,0,0,1,1.06-.16,3.27,3.27,0,0,1,.54,0l.48.11.36.15a1.44,1.44,0,0,1,.23.13.56.56,0,0,1,.11.11l0,.1a.44.44,0,0,1,0,.13,1.23,1.23,0,0,1,0,.2,1.27,1.27,0,0,1,0,.22.57.57,0,0,1,0,.15A.22.22,0,0,1,375,60a.11.11,0,0,1-.08,0,.35.35,0,0,1-.19-.08l-.32-.17a3.61,3.61,0,0,0-.47-.17,2,2,0,0,0-.62-.09,2.23,2.23,0,0,0-.55.07,1.19,1.19,0,0,0-.39.2.86.86,0,0,0-.3.7.76.76,0,0,0,.15.48,1.27,1.27,0,0,0,.38.34,3.4,3.4,0,0,0,.54.27l.62.24.62.28a2.62,2.62,0,0,1,.54.38,1.66,1.66,0,0,1,.38.53A1.72,1.72,0,0,1,375.45,63.78Z"/><path class="cls-2" d="M389.92,58.93a.74.74,0,0,1,0,.12,1.08,1.08,0,0,1,0,.19l-2,6.32a.27.27,0,0,1-.07.13.32.32,0,0,1-.13.08l-.23,0h-.76a1.11,1.11,0,0,1-.24,0,.24.24,0,0,1-.14-.08.35.35,0,0,1-.07-.12l-1.39-4.83,0-.07v.07l-1.3,4.83a.27.27,0,0,1-.07.13.37.37,0,0,1-.14.08l-.25,0h-.75l-.23,0a.27.27,0,0,1-.14-.08.35.35,0,0,1-.07-.12l-1.94-6.32a1.08,1.08,0,0,1-.05-.19.74.74,0,0,1,0-.12.18.18,0,0,1,0-.11.26.26,0,0,1,.1-.07.84.84,0,0,1,.19,0h.62a.61.61,0,0,1,.19,0,.2.2,0,0,1,.1.07.43.43,0,0,1,0,.12l1.61,5.48v.07l0-.07L384.26,59a.42.42,0,0,1,0-.12l.1-.07.19,0h.59l.18,0a.22.22,0,0,1,.09.07.31.31,0,0,1,.05.1l1.59,5.5v0L388.69,59a.43.43,0,0,1,.05-.12.26.26,0,0,1,.1-.07l.2,0h.59a.35.35,0,0,1,.17,0,.17.17,0,0,1,.09.06A.18.18,0,0,1,389.92,58.93Z"/><path class="cls-2" d="M392.79,56.69a.82.82,0,0,1-.16.59.9.9,0,0,1-.6.15.89.89,0,0,1-.59-.15,1.16,1.16,0,0,1,0-1.16.9.9,0,0,1,.6-.15.84.84,0,0,1,.58.15A.76.76,0,0,1,392.79,56.69Zm-.14,8.9a.15.15,0,0,1,0,.1.22.22,0,0,1-.09.07.74.74,0,0,1-.19,0h-.6l-.18,0a.2.2,0,0,1-.1-.07.15.15,0,0,1,0-.1V58.94a.19.19,0,0,1,0-.1.29.29,0,0,1,.1-.07.69.69,0,0,1,.18,0l.3,0,.3,0,.19,0a.35.35,0,0,1,.09.07.19.19,0,0,1,0,.1Z"/><path class="cls-2" d="M398.37,65.11a1.58,1.58,0,0,1,0,.34.38.38,0,0,1-.09.18.5.5,0,0,1-.18.11,1.71,1.71,0,0,1-.27.09l-.32,0a1.94,1.94,0,0,1-.34,0,2.65,2.65,0,0,1-.89-.13,1.36,1.36,0,0,1-.6-.42,1.65,1.65,0,0,1-.35-.7,4.22,4.22,0,0,1-.1-1V59.76h-.94a.19.19,0,0,1-.17-.12.73.73,0,0,1-.07-.38,1.66,1.66,0,0,1,0-.24.75.75,0,0,1,0-.16.22.22,0,0,1,.07-.09l.11,0h.93V57.17a.16.16,0,0,1,0-.1.29.29,0,0,1,.1-.08.69.69,0,0,1,.19,0l.29,0,.31,0a.69.69,0,0,1,.18,0,.44.44,0,0,1,.1.08.17.17,0,0,1,0,.1v1.58h1.7l.11,0a.22.22,0,0,1,.07.09.43.43,0,0,1,.05.16,1.66,1.66,0,0,1,0,.24.73.73,0,0,1-.07.38.19.19,0,0,1-.18.12h-1.7v3.71a2.06,2.06,0,0,0,.2,1,.77.77,0,0,0,.73.35,1.39,1.39,0,0,0,.3,0l.24-.07.17-.07a.43.43,0,0,1,.14,0l.07,0a.18.18,0,0,1,.05.07s0,.08,0,.14A1.4,1.4,0,0,1,398.37,65.11Z"/><path class="cls-2" d="M405.71,65.59a.15.15,0,0,1,0,.1.2.2,0,0,1-.1.07.56.56,0,0,1-.18,0h-.6a.74.74,0,0,1-.19,0,.22.22,0,0,1-.09-.07.15.15,0,0,1,0-.1V61.7a3.79,3.79,0,0,0-.09-.92,2.05,2.05,0,0,0-.26-.6,1.16,1.16,0,0,0-.44-.38,1.38,1.38,0,0,0-.62-.13,1.53,1.53,0,0,0-.92.32,5,5,0,0,0-1,.95v4.65a.15.15,0,0,1,0,.1.2.2,0,0,1-.1.07.56.56,0,0,1-.18,0h-.6a.74.74,0,0,1-.19,0,.2.2,0,0,1-.1-.07.25.25,0,0,1,0-.1V55.72a.36.36,0,0,1,0-.11.2.2,0,0,1,.1-.07l.19,0,.29,0,.31,0a.6.6,0,0,1,.18,0,.2.2,0,0,1,.1.07.2.2,0,0,1,0,.11v4a3.84,3.84,0,0,1,1.06-.82,2.33,2.33,0,0,1,1.07-.27,2.54,2.54,0,0,1,1.12.22,1.9,1.9,0,0,1,.73.61,2.46,2.46,0,0,1,.41.88,5.35,5.35,0,0,1,.12,1.22Z"/><path class="cls-2" d="M417.08,65.59a.15.15,0,0,1,0,.1.22.22,0,0,1-.09.07.74.74,0,0,1-.19,0h-.6l-.18,0a.2.2,0,0,1-.1-.07.15.15,0,0,1,0-.1V61.7a3.79,3.79,0,0,0-.09-.92,1.81,1.81,0,0,0-.25-.6,1.24,1.24,0,0,0-.44-.38,1.39,1.39,0,0,0-.63-.13,1.53,1.53,0,0,0-.91.32,5.34,5.34,0,0,0-1,.95v4.65a.15.15,0,0,1,0,.1.22.22,0,0,1-.09.07.74.74,0,0,1-.19,0h-.59a.64.64,0,0,1-.19,0,.2.2,0,0,1-.1-.07.15.15,0,0,1,0-.1V55.72a.2.2,0,0,1,0-.11.2.2,0,0,1,.1-.07.69.69,0,0,1,.19,0l.29,0,.3,0,.19,0a.22.22,0,0,1,.09.07.2.2,0,0,1,0,.11v4a4,4,0,0,1,1.06-.82,2.36,2.36,0,0,1,1.07-.27,2.48,2.48,0,0,1,1.12.22,1.93,1.93,0,0,1,.74.61,2.29,2.29,0,0,1,.4.88,5.35,5.35,0,0,1,.12,1.22Z"/><path class="cls-2" d="M425,62a.5.5,0,0,1-.15.41.52.52,0,0,1-.33.12h-4.38a4.37,4.37,0,0,0,.11,1,1.93,1.93,0,0,0,.37.76,1.73,1.73,0,0,0,.68.49,2.7,2.7,0,0,0,1,.17,4.31,4.31,0,0,0,.85-.08,5.27,5.27,0,0,0,.64-.17l.45-.18a.72.72,0,0,1,.26-.07.16.16,0,0,1,.1,0,.28.28,0,0,1,.06.08.42.42,0,0,1,0,.14,1.55,1.55,0,0,1,0,.23v.17s0,.08,0,.12a.3.3,0,0,1,0,.1l-.07.09a1,1,0,0,1-.24.13,3.63,3.63,0,0,1-.51.18c-.21.06-.46.11-.74.16a5,5,0,0,1-.89.07,4.18,4.18,0,0,1-1.44-.23,2.73,2.73,0,0,1-1-.68,2.89,2.89,0,0,1-.63-1.13,5.33,5.33,0,0,1-.22-1.58,4.84,4.84,0,0,1,.23-1.54,3,3,0,0,1,.64-1.16,2.72,2.72,0,0,1,1-.74,3.35,3.35,0,0,1,1.33-.25,3.16,3.16,0,0,1,1.33.25,2.5,2.5,0,0,1,.91.68,2.76,2.76,0,0,1,.52,1,4.46,4.46,0,0,1,.17,1.23Zm-1.23-.36a2.25,2.25,0,0,0-.43-1.51,1.6,1.6,0,0,0-1.33-.55,1.81,1.81,0,0,0-.8.17,1.84,1.84,0,0,0-.57.45,1.92,1.92,0,0,0-.36.66,2.9,2.9,0,0,0-.14.78Z"/><path class="cls-2" d="M431.85,65.6a.15.15,0,0,1-.06.13.34.34,0,0,1-.16.07,1.24,1.24,0,0,1-.3,0,1.37,1.37,0,0,1-.31,0,.34.34,0,0,1-.17-.07.17.17,0,0,1-.05-.13v-.66a3.18,3.18,0,0,1-1,.72,2.63,2.63,0,0,1-1.13.26,3.11,3.11,0,0,1-.95-.14,2,2,0,0,1-.73-.39,1.84,1.84,0,0,1-.46-.64,2.21,2.21,0,0,1,.06-1.83,1.82,1.82,0,0,1,.66-.69,3.16,3.16,0,0,1,1.05-.41,6.54,6.54,0,0,1,1.39-.14h.92v-.51a2.7,2.7,0,0,0-.08-.68,1.25,1.25,0,0,0-.26-.5,1.07,1.07,0,0,0-.47-.29,2.13,2.13,0,0,0-.71-.1,2.56,2.56,0,0,0-.81.11,5,5,0,0,0-.63.23l-.45.24a.65.65,0,0,1-.27.11.15.15,0,0,1-.1,0,.24.24,0,0,1-.08-.09.53.53,0,0,1,0-.15,1.36,1.36,0,0,1,0-.21,1.12,1.12,0,0,1,0-.29.41.41,0,0,1,.13-.2,1.39,1.39,0,0,1,.34-.23,4.32,4.32,0,0,1,.56-.23,4.47,4.47,0,0,1,.7-.18,3.84,3.84,0,0,1,.76-.07,4,4,0,0,1,1.22.16,2,2,0,0,1,.81.48,1.78,1.78,0,0,1,.45.78,3.54,3.54,0,0,1,.14,1.08Zm-1.21-3h-1a3.63,3.63,0,0,0-.87.09,1.68,1.68,0,0,0-.62.25,1.06,1.06,0,0,0-.36.4,1.25,1.25,0,0,0-.11.53,1.08,1.08,0,0,0,.33.83,1.31,1.31,0,0,0,.92.31,1.73,1.73,0,0,0,.89-.25,3.73,3.73,0,0,0,.86-.75Z"/><path class="cls-2" d="M438,59.38a2.1,2.1,0,0,1,0,.27.4.4,0,0,1,0,.17.19.19,0,0,1-.05.1.14.14,0,0,1-.09,0l-.15,0-.19-.07-.24-.06a1.36,1.36,0,0,0-.29,0,.94.94,0,0,0-.36.08,1.39,1.39,0,0,0-.38.24,3.14,3.14,0,0,0-.41.45c-.14.19-.3.42-.47.69v4.37a.15.15,0,0,1,0,.1.22.22,0,0,1-.09.07.74.74,0,0,1-.19,0h-.6a.74.74,0,0,1-.19,0s-.08,0-.09-.07a.15.15,0,0,1,0-.1V58.94a.3.3,0,0,1,0-.1.22.22,0,0,1,.09-.07.42.42,0,0,1,.17-.05h.55a.34.34,0,0,1,.16.05.22.22,0,0,1,.09.07.3.3,0,0,1,0,.1v1a5.88,5.88,0,0,1,.52-.65,3.09,3.09,0,0,1,.45-.4,1.66,1.66,0,0,1,.43-.2,2,2,0,0,1,.42,0h.22l.25,0,.24.07a.49.49,0,0,1,.16.07l.06.07a.64.64,0,0,1,0,.09,1.39,1.39,0,0,1,0,.15Z"/><path class="cls-2" d="M442.83,65.11a1.58,1.58,0,0,1,0,.34.38.38,0,0,1-.09.18.5.5,0,0,1-.18.11,1.71,1.71,0,0,1-.27.09l-.32,0a1.88,1.88,0,0,1-.34,0,2.65,2.65,0,0,1-.89-.13,1.42,1.42,0,0,1-.6-.42,1.77,1.77,0,0,1-.35-.7,4.22,4.22,0,0,1-.1-1V59.76h-.93a.19.19,0,0,1-.18-.12.73.73,0,0,1-.07-.38,1.66,1.66,0,0,1,0-.24.75.75,0,0,1,.05-.16.18.18,0,0,1,.08-.09l.1,0h.93V57.17a.3.3,0,0,1,0-.1.29.29,0,0,1,.1-.08l.19,0,.29,0,.31,0a.6.6,0,0,1,.18,0,.29.29,0,0,1,.1.08.17.17,0,0,1,0,.1v1.58h1.7l.11,0a.36.36,0,0,1,.08.09.75.75,0,0,1,0,.16,1.66,1.66,0,0,1,0,.24.73.73,0,0,1-.07.38.19.19,0,0,1-.18.12h-1.7v3.71a2.17,2.17,0,0,0,.2,1,.78.78,0,0,0,.73.35,1.39,1.39,0,0,0,.3,0l.24-.07.18-.07a.33.33,0,0,1,.13,0l.07,0a.18.18,0,0,1,0,.07s0,.08,0,.14A1.4,1.4,0,0,1,442.83,65.11Z"/><path class="cls-2" d="M448.62,63.78a2.17,2.17,0,0,1-.19.91,1.86,1.86,0,0,1-.54.67,2.41,2.41,0,0,1-.83.42,3.86,3.86,0,0,1-1.05.14,3.74,3.74,0,0,1-.68-.06,3.08,3.08,0,0,1-.58-.14,2.57,2.57,0,0,1-.43-.17,2,2,0,0,1-.26-.17.53.53,0,0,1-.12-.21,1.73,1.73,0,0,1,0-.36,1.77,1.77,0,0,1,0-.24.54.54,0,0,1,0-.15.2.2,0,0,1,.06-.09l.1,0a.52.52,0,0,1,.24.1c.1.06.23.14.39.22a3.75,3.75,0,0,0,.55.21,2.3,2.3,0,0,0,.73.1,2.4,2.4,0,0,0,.56-.06,1.48,1.48,0,0,0,.44-.2.88.88,0,0,0,.28-.33,1,1,0,0,0,.1-.47.77.77,0,0,0-.14-.47,1.38,1.38,0,0,0-.38-.34,3.4,3.4,0,0,0-.54-.27l-.61-.24c-.2-.08-.41-.18-.61-.28a2.34,2.34,0,0,1-.53-.39,1.83,1.83,0,0,1-.39-.55,1.91,1.91,0,0,1-.14-.76,1.93,1.93,0,0,1,.15-.75,1.66,1.66,0,0,1,.46-.63,2.27,2.27,0,0,1,.75-.43,3.17,3.17,0,0,1,1.07-.16,3.23,3.23,0,0,1,.53,0l.48.11.36.15a1.44,1.44,0,0,1,.23.13.56.56,0,0,1,.11.11.29.29,0,0,1,0,.1,1.3,1.3,0,0,1,0,.13c0,.06,0,.13,0,.2s0,.16,0,.22a.54.54,0,0,1,0,.15l-.06.09a.15.15,0,0,1-.09,0,.38.38,0,0,1-.19-.08l-.32-.17a3.61,3.61,0,0,0-.47-.17,2,2,0,0,0-.62-.09,2.23,2.23,0,0,0-.55.07,1.24,1.24,0,0,0-.38.2.76.76,0,0,0-.23.31.85.85,0,0,0-.08.39.76.76,0,0,0,.15.48,1.27,1.27,0,0,0,.38.34,3.4,3.4,0,0,0,.54.27l.62.24.62.28a2.62,2.62,0,0,1,.54.38,1.66,1.66,0,0,1,.38.53A1.72,1.72,0,0,1,448.62,63.78Z"/><path class="cls-2" d="M451.91,56a2.82,2.82,0,0,1,0,.42,2.15,2.15,0,0,1-.2.69,3.13,3.13,0,0,1-.21.34l-1,1.52a.39.39,0,0,1-.08.1.41.41,0,0,1-.11.07l-.16,0h-.42l-.12,0a.1.1,0,0,1,0-.07.26.26,0,0,1,0-.11l1-2V56a1.23,1.23,0,0,1,0-.31.34.34,0,0,1,.12-.18.49.49,0,0,1,.22-.09l.31,0,.3,0a.41.41,0,0,1,.21.09.34.34,0,0,1,.12.18A.9.9,0,0,1,451.91,56Zm2.65,0c0,.15,0,.29,0,.42s0,.24-.07.35a1.43,1.43,0,0,1-.14.34,2,2,0,0,1-.2.34l-1,1.52a.39.39,0,0,1-.08.1.35.35,0,0,1-.12.07l-.15,0h-.42a.34.34,0,0,1-.12,0,.1.1,0,0,1,0-.07.52.52,0,0,1,0-.11l1-2V56a.9.9,0,0,1,0-.31.29.29,0,0,1,.12-.18.45.45,0,0,1,.21-.09l.32,0,.3,0a.5.5,0,0,1,.21.09.41.41,0,0,1,.12.18A.9.9,0,0,1,454.56,56Z"/><path class="cls-3" d="M39.65,0A39.65,39.65,0,1,1,0,39.65,39.65,39.65,0,0,1,39.65,0"/><path class="cls-4" d="M39.15,9.18A30.47,30.47,0,1,1,8.42,39.65,30.6,30.6,0,0,1,39.15,9.18"/><g class="cls-5"><path class="cls-6" d="M22.89,69.54s1.89,1.29,3.27.14a4.11,4.11,0,0,1,3.85.15,5.21,5.21,0,0,0,4.5-.15s2.69-.86,2.91-1.87a7,7,0,0,0-1.24-1.29,1.23,1.23,0,0,0-.87.21s-3.12,2.59-5.23,1.87a5.19,5.19,0,0,0-4.14.43,5.13,5.13,0,0,1-3.05.51"/><path class="cls-6" d="M38.94,60.69s0-1.66-1.45-1.66c0,0-2.11.14-2,4.61,0,0,.29,4,5.88,5.54a7.15,7.15,0,0,0,3.7,0s.8-.58,2.25.36c0,0,3.05,1.73,5.81.36,0,0,.58-.51-.07-.51a6,6,0,0,0-1.31.22s-1.09.36-3.27-.79A7.21,7.21,0,0,0,44,67.6s-4.57,0-5.66-3.6a3.5,3.5,0,0,1,.15-1.37,3,3,0,0,0,.43-1.94"/><path class="cls-6" d="M37.13,49.24A6.27,6.27,0,0,0,36.25,56s1.09,1.15,2.4,2.88a3.11,3.11,0,0,1,.58,3.81,1.89,1.89,0,0,0,.58,2.45s.87.5,1.6-.58a6,6,0,0,0,.65-5.9,9.42,9.42,0,0,0-2.9-3.31,2.2,2.2,0,0,1-.29-2.88A2.42,2.42,0,0,0,39,50.32s-.94-1.66-1.88-1.08"/><path class="cls-6" d="M21.15,30.17s1.38.21,1.09-3.17c0,0,.94.29,2-.94a.87.87,0,0,1,.94.58,3.09,3.09,0,0,0-2.61,1.08s.44,3,3.63.94c0,0,1.16.28,1.24,2.73a6.27,6.27,0,0,0-3.85-.29s-2.25.29-2.4-.93m-3.78,2s2.11.15,1.82,3.53l.07.58s.8-2.52,2.83-2.09a2.52,2.52,0,0,1-2.32,3.38,7.25,7.25,0,0,0,1.09,1.58s-.29-2.52,2.9-2.44c0,0,.8,3.16-2.25,3.45,0,0,.44,1.3,1.46,1.51a2.84,2.84,0,0,0,.5-1.29s.22-1.66,1.38-1.66a1.55,1.55,0,0,1,.95,1.59,1.8,1.8,0,0,1-1.45,1.94,3.72,3.72,0,0,0,2.61.79S25.87,41,27,39.67a2.4,2.4,0,0,1,2,2.88A5.18,5.18,0,0,0,30.74,42a4.3,4.3,0,0,1,2.25-.5,4.55,4.55,0,0,0-1.89-2,8.59,8.59,0,0,1-3.05-5s-.36-2.6-4.07-2.67a4.07,4.07,0,0,1-3.63-.72s-.22.87-2.9.79A1.4,1.4,0,0,1,16.29,31s.14-1.44,3.26-1.15c0,0-.07-.43-.94-.87,0,0-3.12.08-2.11-3.16,0,0,2.76-.58,2.76,2.73a1,1,0,0,0,.58.43s-.14-1.87,1.31-2.37c0,0-.73-.36-.87-.87,0,0,.51-1.65,3.48-1.29l-.94-.79s-3.27-.15-2.4-3.31c0,0,2.47-.65,3,2.52l.51.64a2,2,0,0,1,2-2.3s1.23,1.66-.66,3.53A1.82,1.82,0,0,0,26,26.21a2.62,2.62,0,0,1,2.17-2.95,3.6,3.6,0,0,1-.87,4.1s.51,1.37.87,2.66a8.34,8.34,0,0,1,.66,3.1,11.19,11.19,0,0,1,1.52,3.45s1.67,2.74,3.78,3A2.19,2.19,0,0,0,34,37.87a4.37,4.37,0,0,1,.37-3.53s.87-1.58-.44-2.37c0,0-2.69.57-2.47-3.17A2.36,2.36,0,0,1,34.37,30a7.94,7.94,0,0,0-.73-4.46,2.16,2.16,0,0,0-.94-1s-2.11,3.17-4.07,1.15a3.9,3.9,0,0,1,2.18-2.23,2.43,2.43,0,0,0-1.53-1.15s-3.77-1.08-1-4.39c0,0,2.1.29,1.67,4,0,0,3.19,1.44,4.43,3.24,0,0,.07-1.3,0-2.38,0,0-3,1.59-3.56-2.3a2.45,2.45,0,0,1,3.56.86,3.62,3.62,0,0,0-.44-2.3s-3.27,2.09-3.7-1.73a3.24,3.24,0,0,1,3.7.94A3.13,3.13,0,0,0,33.42,17s-3.27-1.29-1.3-4.31c0,0,3.12.5,1.81,4l.44.86S34.15,15.48,37,15.2a2.8,2.8,0,0,1-2.11,3.74,2.76,2.76,0,0,1,.3,1.37A2.55,2.55,0,0,1,38,18.79s.72,3.32-2.47,3.6a46.28,46.28,0,0,0-.07,7.78s1.52.93.21,4.75a5.17,5.17,0,0,0,.8,5.11,11,11,0,0,1,.66,3.45S37,45.28,40,46.65c0,0,3.41,2.23,2.54,6.05,0,0-.51,2.95-2.11,2.95,0,0-1.59-1.15-1-2.16,0,0,1.23-3.1-.8-4.39A16.61,16.61,0,0,1,34.44,44s-1.09-1.87-4.14-.51a4.67,4.67,0,0,1-4,.72s1.23,2.95-2.69,3.17c0,0-1.67-1.3,1.09-3.53A3.78,3.78,0,0,1,23,43.05s.29,3.17-3.12,2.52c0,0-1.09-2,1.74-3.09l-.44-.29s-.51-.65-2.76.57c0,0,1.89,2-.87,3.24,0,0-1.74.79-1.45-.5a4.92,4.92,0,0,1,1.23-2.45,2.33,2.33,0,0,0-1.16-.14s-2.18,2.73-3.85.21c0,0,.73-2.95,3.85-.64l1-.15s-2.4-.57-1.16-3.24c0,0,2.76-.72,2.47,2.74a8.25,8.25,0,0,1,2.61-.58s-1.82-2.23-2-3.38c0,0-1.45,1.8-3.56-.22,0,0-.94-1.15.36-1.22a5.93,5.93,0,0,1,2.69.36s-.14-.79-.14-1C18.54,35.78,15.05,34.49,17.37,32.18Z"/><path class="cls-6" d="M39.67,45.69s1,.77,1.64,1.44a79,79,0,0,0,4.94-7.2s1.65-1.34,4.26,2.69c0,0-2.32.57-1.06,3.65,0,0,1,1.44,1.93-.29a2.68,2.68,0,0,0,.2-2.4,4.54,4.54,0,0,0,1.92.94l.11,0,.29.06a3,3,0,0,0,.1,4s1.84.86,1.45-2.78a5.18,5.18,0,0,0-.39-1.06,4,4,0,0,0,2.42.38S56.9,48,59.42,48.66c0,0,.77.2.87-.95a2.13,2.13,0,0,0-1.07-2.21h1.07s2.32,2.11,3.78-.1c0,0,.29-1.92-2.52-1.63a6.1,6.1,0,0,0-1.36.86l-.87.1a13.14,13.14,0,0,1-7.55-2.4,11.48,11.48,0,0,0-3.49-3.45c.29-1,3.1-.1,3.1-.1a11.71,11.71,0,0,0,3.58.67v.07c1.79-.43,3.68-.22,5.68-.6l.34-.14a2.67,2.67,0,0,0,4.16-1.15s-2.52-2-4.26.67l-1.06.1s1.64-.87.77-3.17c0,0-2.52-.86-2.42,3.26a7.4,7.4,0,0,1-3.49-.19s2.33-.77,1.75-2.88c0,0-3.2-1.05-3.49,2.4a8.16,8.16,0,0,1-2.13-.38,5.68,5.68,0,0,0-4.26.57s1.36-5.18,6.39-5.28a5.7,5.7,0,0,1,2.91,1s1.45,2.6,4,1.16c0,0,.77-1.73-2.33-2.31a1.05,1.05,0,0,1,.78-.38s3.48,1.05,3.58-2.4c0,0-1.84-1.73-4.07,1.53,0,0,.78-1.53-.19-2.11,0,0-2.13-.67-2.62,2.79A2.34,2.34,0,0,1,53,32a7.53,7.53,0,0,0,3.1-3.84s2.13,2.11,4.16-1.06c0,0-.87-1.73-3.58-.19a2.83,2.83,0,0,0,.68-1.06s3-.48,1.35-3.83c0,0-3-.2-2.32,3.16A1.68,1.68,0,0,1,56,26.59s-.1-2.59-2.42-2.4A2.52,2.52,0,0,0,55,27.84a1.74,1.74,0,0,1-.87,1.44A27,27,0,0,0,52.16,27s-1.16-2.21.38-3.75c0,0,2.52,1.44,3.88-1,0,0,.48-1.53-3.39-.57l.48-.77a2.39,2.39,0,0,0,1.16-3.74s-3.29.19-2,3.55l-.39.77s-1.06-2.88-2.61-2.12c0,0-1.65,2.79,1.64,3.36,0,0-1.64,4.23.68,5.67a1.82,1.82,0,0,1,.87,2.3S48,32.54,46,35.52a15.29,15.29,0,0,0-1.26-6.24s-.87-2.5,0-3.55c0,0,3.49.57,2.81-2.88,0,0-1.26-.77-3.2,1.25A16.93,16.93,0,0,1,45.19,19s1.93,2.5,3.87-.29c0,0,1.06-2.68-3.39-.67a3.42,3.42,0,0,1,.58-1.15,2.42,2.42,0,0,0,1.07-3.17.68.68,0,0,0-1.17-.19s-2.22.86-1,3.55l-.2.58s-.87-2.4-2.9-1.92c0,0-1.16,3.07,2,3.55a13.16,13.16,0,0,0-.39,2.4,3.32,3.32,0,0,0-2.13-.77S40,24,43.54,24.38c0,0-.39,3.36.29,5.19,0,0-3-1.73-2.9-6.43a9.79,9.79,0,0,1,0-2.59s1.25-2.69-1.55-3.46c0,0-2.42,2.21.58,4.32a4.14,4.14,0,0,1,.1,1.25,4.87,4.87,0,0,0-2.91-.48S36,25,40.25,25.06c0,0,.87,4.7,3.87,6.52,0,0,1.84,4.42,0,7.1a4.61,4.61,0,0,0-1.65-1.63,1.8,1.8,0,0,1-.29-1.63s2.33.1,1.84-3.26c0,0-2-.77-2.9,2.49L41,34s.78-3.84-2.61-3.55c0,0-1.84,2,1.84,3.65l.19.67a2.36,2.36,0,0,0-3.19.67s1.45,2.88,3.68,1.06a17.85,17.85,0,0,0,1.35,1.63,3.44,3.44,0,0,1,0,3.84s-2,2.78-2.61,3.74"/><path class="cls-6" d="M52.93,37.82l.18-1A2.46,2.46,0,0,1,56,35.32l.43.1a3.12,3.12,0,0,1-1.62,2.93h-.67Z"/><path class="cls-6" d="M51.83,42.4l.61-.76a2.47,2.47,0,0,1,3.27,0l.33.29C54.85,44.38,53.14,44,51.83,42.4Z"/><path class="cls-7" d="M51.83,42.4l.61-.76a2.47,2.47,0,0,1,3.27,0l.33.29C54.85,44.38,53.14,44,51.83,42.4Z"/><path class="cls-6" d="M58.92,38.6l.79.17a3.44,3.44,0,0,1,2.07,2.55l.06.38C59.77,41.8,58.87,40.31,58.92,38.6Z"/><path class="cls-8" d="M58.92,38.6l.79.17a3.44,3.44,0,0,1,2.07,2.55l.06.38C59.77,41.8,58.87,40.31,58.92,38.6Z"/><path class="cls-6" d="M57.1,44.42l.34-.72a3.5,3.5,0,0,1,3-1.41l.39,0C60.44,44.34,58.77,44.86,57.1,44.42Z"/><path class="cls-8" d="M57.1,44.42l.34-.72a3.5,3.5,0,0,1,3-1.41l.39,0C60.44,44.34,58.77,44.86,57.1,44.42Z"/><path class="cls-6" d="M55.26,39.29l.8.05a3.46,3.46,0,0,1,2.43,2.23l.11.37C56.57,42.33,55.46,41,55.26,39.29Z"/><path class="cls-8" d="M55.26,39.29l.8.05a3.46,3.46,0,0,1,2.43,2.23l.11.37C56.57,42.33,55.46,41,55.26,39.29Z"/></g><path class="cls-2" d="M60.47,18.52a30.35,30.35,0,0,0-42.64,0,29.71,29.71,0,0,0,0,42.25,30.35,30.35,0,0,0,42.64,0,29.68,29.68,0,0,0,0-42.25M39.15,8.59a31.33,31.33,0,0,1,22.15,9.1,30.86,30.86,0,0,1,0,43.92,31.51,31.51,0,0,1-44.3,0,30.86,30.86,0,0,1,0-43.92A31.33,31.33,0,0,1,39.15,8.59Z"/><path class="cls-4" d="M46.66,51.3H69.44c.79,0,1.44,1,1.44,2.27v7.17c0,1.25-.65,2.27-1.44,2.27H46.66c-.8,0-1.45-1-1.45-2.27V53.57c0-1.25.65-2.27,1.45-2.27"/><path class="cls-2" d="M66.7,52.1h-.42v.71a4,4,0,0,0-.45-.2,1.73,1.73,0,0,0-.37-.11l-.4,0a2.16,2.16,0,0,0-1.06.26,2,2,0,0,0-.73.72,2.12,2.12,0,0,0-.26,1,1.9,1.9,0,0,0,.19.88,2.3,2.3,0,0,0,.5.67,5.52,5.52,0,0,0,.72.52c.27.16.54.31.83.45s.55.29.82.44a5.46,5.46,0,0,1,.72.51,2,2,0,0,1,.5.63,1.82,1.82,0,0,1,.2.83,2.14,2.14,0,0,1-.22.91,2.17,2.17,0,0,1-.6.75,2.92,2.92,0,0,1-.88.5,3.9,3.9,0,0,1-1.1.18,3.12,3.12,0,0,1-1.1-.21,2.94,2.94,0,0,1-.9-.55,2.58,2.58,0,0,1-.62-.82,2.22,2.22,0,0,1-.23-1,1.94,1.94,0,0,1,.48-1.29,1.73,1.73,0,0,1,.53-.4,1.49,1.49,0,0,1,.63-.14,1.44,1.44,0,0,1,.64.13,1,1,0,0,1,.44.35.91.91,0,0,1,.16.52.81.81,0,0,1-.24.61.86.86,0,0,1-.62.25v.28l.19.06.15,0h.15a1.28,1.28,0,0,0,.61-.14,1,1,0,0,0,.4-.36,1.1,1.1,0,0,0,.15-.55,1.42,1.42,0,0,0-.16-.61,1.71,1.71,0,0,0-.43-.5,2.23,2.23,0,0,0-.65-.34,2.47,2.47,0,0,0-.79-.12,2.18,2.18,0,0,0-.93.19,2.29,2.29,0,0,0-.75.5,2.33,2.33,0,0,0-.5.77,2.77,2.77,0,0,0-.18,1,2.65,2.65,0,0,0,.26,1.14,2.58,2.58,0,0,0,.72.89,3.34,3.34,0,0,0,1.13.57,5,5,0,0,0,1.45.2A4.48,4.48,0,0,0,66.17,62a3.61,3.61,0,0,0,1.18-.68A3,3,0,0,0,68.41,59a2.4,2.4,0,0,0-.2-1,2.73,2.73,0,0,0-.52-.78,5,5,0,0,0-.74-.63c-.28-.18-.56-.35-.85-.51l-.86-.46a7.23,7.23,0,0,1-.74-.44,2.47,2.47,0,0,1-.52-.49,1,1,0,0,1-.2-.59,1.2,1.2,0,0,1,.15-.59,1.27,1.27,0,0,1,.41-.42,1.12,1.12,0,0,1,.58-.16,1.43,1.43,0,0,1,.66.15,1.18,1.18,0,0,1,.42.41,2,2,0,0,1,.22.57,3.49,3.49,0,0,1,.06.65v.88h.42Zm-6,9.47h-.18a1.66,1.66,0,0,1-.42,0,.39.39,0,0,1-.23-.19,1.23,1.23,0,0,1-.1-.43c0-.19,0-.45,0-.78v-7h1V52.7H57.49v.42h.18a1.24,1.24,0,0,1,.42,0,.37.37,0,0,1,.24.18,1.14,1.14,0,0,1,.1.44,6,6,0,0,1,0,.78v7h-1V62h3.18ZM49.92,53.45c.24-.09.45-.15.63-.2a3.38,3.38,0,0,1,.49-.11,2.33,2.33,0,0,1,.46,0,4,4,0,0,1,2.91,1.23,4.16,4.16,0,0,1,.88,1.34,4.2,4.2,0,0,1,.33,1.66,4.84,4.84,0,0,1-.3,1.73,4,4,0,0,1-.83,1.35,3.69,3.69,0,0,1-1.28.89,4.25,4.25,0,0,1-1.62.32,3.82,3.82,0,0,1-1-.13l-.67-.21ZM47.68,62h1.83l.72,0,.72.05.72,0a5.84,5.84,0,0,0,2.09-.36,4.9,4.9,0,0,0,1.66-1,4.53,4.53,0,0,0,1.1-1.53,4.89,4.89,0,0,0,.39-1.93A4.33,4.33,0,0,0,56.72,56a4.73,4.73,0,0,0-.53-1.17,5.24,5.24,0,0,0-.84-1,4.68,4.68,0,0,0-2-1,7,7,0,0,0-.92-.12l-1,0-1.09,0-1.09,0h-1.6v.42h.18a1.69,1.69,0,0,1,.43,0,.36.36,0,0,1,.24.19,1.18,1.18,0,0,1,.1.43c0,.19,0,.45,0,.77v7h-1Z"/></g></g></svg>